<?xml version="1.0" encoding="UTF-8"?>
<svg id="Capa_2" data-name="Capa 2" xmlns="http://www.w3.org/2000/svg" xmlns:xlink="http://www.w3.org/1999/xlink" viewBox="0 0 607.32 153.66">
  <defs>
    <style>
      .cls-1 {
        fill: url(#Degradado_sin_nombre_34);
      }
    </style>
    <linearGradient id="Degradado_sin_nombre_34" data-name="Degradado sin nombre 34" x1="197.14" y1="65.88" x2="639.48" y2="65.88" gradientTransform="translate(-28.81 -10.19) rotate(2.75)" gradientUnits="userSpaceOnUse">
      <stop offset="0" stop-color="#6da93f"/>
      <stop offset=".41" stop-color="#37964f"/>
      <stop offset=".77" stop-color="#0f895b"/>
      <stop offset=".95" stop-color="#008460"/>
    </linearGradient>
  </defs>
  <g id="Capa_1-2" data-name="Capa 1">
    <g>
      <g>
        <path d="M26.7,92.01c-6.12,0-11.15-.98-15.07-2.94-3.92-1.96-6.84-4.57-8.76-7.82-1.91-3.25-2.87-6.84-2.87-10.76,0-6.6,2.58-11.96,7.75-16.08,5.17-4.11,12.92-6.17,23.25-6.17h18.09v-1.72c0-4.88-1.39-8.47-4.16-10.76-2.78-2.3-6.22-3.45-10.33-3.45-3.73,0-6.99,.89-9.76,2.66-2.78,1.77-4.5,4.38-5.17,7.82H1.72c.48-5.17,2.22-9.66,5.24-13.49,3.01-3.83,6.91-6.77,11.7-8.83,4.78-2.06,10.14-3.09,16.08-3.09,10.14,0,18.13,2.54,23.97,7.61,5.84,5.08,8.76,12.25,8.76,21.53v43.78h-15.65l-1.72-11.48c-2.11,3.83-5.05,6.99-8.83,9.47-3.78,2.49-8.64,3.73-14.57,3.73Zm4.16-14.35c5.26,0,9.35-1.72,12.27-5.17,2.92-3.45,4.76-7.7,5.53-12.78h-15.65c-4.88,0-8.37,.89-10.48,2.66-2.11,1.77-3.16,3.95-3.16,6.53,0,2.78,1.05,4.93,3.16,6.46,2.1,1.53,4.88,2.3,8.32,2.3Z"/>
        <path d="M115.12,69.04c-3.44,0-6.65-.38-9.62-1.15l-5.31,5.31c1.63,.86,3.83,1.58,6.6,2.15,2.77,.58,7.27,1.15,13.49,1.72,9.47,.86,16.36,3.11,20.67,6.75,4.31,3.64,6.46,8.66,6.46,15.07,0,4.21-1.15,8.2-3.44,11.98-2.3,3.78-5.84,6.84-10.62,9.19-4.79,2.34-10.91,3.52-18.37,3.52-10.14,0-18.33-1.89-24.54-5.67-6.22-3.78-9.33-9.45-9.33-17.01,0-6.41,3.11-11.96,9.33-16.65-1.91-.86-3.57-1.77-4.95-2.73-1.39-.95-2.61-1.96-3.66-3.02v-3.3l12.49-13.2c-5.55-4.88-8.33-11.15-8.33-18.8,0-4.78,1.17-9.14,3.52-13.06,2.34-3.92,5.67-7.03,9.98-9.33,4.31-2.3,9.52-3.45,15.65-3.45,4.02,0,7.75,.57,11.2,1.72h26.98v11.2l-12.2,.86c1.91,3.64,2.87,7.66,2.87,12.06,0,4.79-1.15,9.14-3.44,13.06-2.3,3.92-5.62,7.04-9.98,9.33-4.36,2.3-9.5,3.44-15.43,3.44Zm-17.23,30c0,3.54,1.65,6.19,4.95,7.97,3.3,1.77,7.34,2.66,12.13,2.66s8.33-.93,11.2-2.8c2.87-1.87,4.31-4.38,4.31-7.54,0-2.58-.93-4.74-2.8-6.46-1.87-1.72-5.58-2.77-11.12-3.16-3.92-.29-7.56-.72-10.91-1.29-2.78,1.53-4.76,3.21-5.96,5.02-1.2,1.82-1.79,3.68-1.79,5.6Zm17.23-44.07c3.73,0,6.82-1.01,9.26-3.02,2.44-2.01,3.66-4.88,3.66-8.61s-1.22-6.6-3.66-8.61c-2.44-2.01-5.53-3.02-9.26-3.02-3.92,0-7.08,1.01-9.47,3.02-2.39,2.01-3.59,4.88-3.59,8.61s1.2,6.6,3.59,8.61c2.39,2.01,5.55,3.02,9.47,3.02Z"/>
        <path d="M198.37,92.01c-7.18,0-13.54-1.53-19.09-4.59-5.55-3.06-9.9-7.37-13.06-12.92-3.16-5.55-4.74-11.96-4.74-19.24s1.55-13.92,4.66-19.66c3.11-5.74,7.41-10.21,12.92-13.42,5.5-3.21,11.99-4.81,19.45-4.81,6.98,0,13.16,1.53,18.52,4.59,5.36,3.06,9.55,7.25,12.56,12.56,3.01,5.31,4.52,11.22,4.52,17.73,0,1.06-.03,2.15-.07,3.3-.05,1.15-.12,2.35-.22,3.59h-54.11c.38,5.55,2.32,9.9,5.81,13.06,3.49,3.16,7.73,4.74,12.7,4.74,3.73,0,6.86-.84,9.4-2.51,2.53-1.67,4.42-3.85,5.67-6.53h18.66c-1.34,4.5-3.57,8.59-6.68,12.27-3.11,3.68-6.94,6.58-11.48,8.68-4.55,2.11-9.69,3.16-15.43,3.16Zm.14-59.71c-4.5,0-8.47,1.27-11.91,3.81-3.44,2.53-5.65,6.38-6.6,11.55h35.45c-.29-4.69-2.01-8.42-5.17-11.2-3.16-2.77-7.08-4.16-11.77-4.16Z"/>
        <path class="cls-1" d="M305.01,57.06c2.49,2.73,3.73,6.63,3.73,11.7,.1,4.4-1.05,8.37-3.44,11.91-2.39,3.54-5.84,6.31-10.33,8.32-4.5,2.01-9.81,3.02-15.93,3.02s-11.87-1.03-16.65-3.08c-4.79-2.06-8.61-4.9-11.48-8.54-2.87-3.63-4.59-7.84-5.17-12.63h18.52c.57,2.78,2.13,5.15,4.67,7.11,2.53,1.96,5.81,2.94,9.83,2.94s6.96-.81,8.83-2.44c1.87-1.62,2.8-3.49,2.8-5.6,0-3.06-1.34-5.14-4.02-6.24-2.68-1.1-6.41-2.18-11.2-3.23-3.06-.67-6.17-1.48-9.33-2.44-3.16-.96-6.05-2.18-8.68-3.66-2.63-1.48-4.76-3.4-6.39-5.74-1.63-2.34-2.44-5.24-2.44-8.68,0-6.32,2.51-11.63,7.54-15.93,5.02-4.31,12.08-6.46,21.17-6.46,8.42,0,15.14,1.96,20.17,5.88,5.02,3.92,8.01,9.33,8.97,16.22h-17.37c-1.05-5.26-5.02-7.89-11.91-7.89-3.44,0-6.1,.67-7.97,2.01-1.87,1.34-2.8,3.02-2.8,5.02,0,2.11,1.39,3.78,4.16,5.02,2.77,1.25,6.46,2.4,11.05,3.45,4.97,1.15,9.55,2.42,13.71,3.81,4.16,1.39,7.49,3.44,9.97,6.17Zm92.58-21.46c3.06,5.64,4.59,12.05,4.59,19.23s-1.53,13.56-4.59,19.16c-3.06,5.6-7.23,10-12.49,13.21-5.26,3.21-11.24,4.81-17.94,4.81-5.36,0-10.05-1.01-14.07-3.02-4.02-2.01-7.27-4.83-9.76-8.47v58.39h-18.37V19.09h16.36l2.01,10.19c2.3-3.16,5.33-5.93,9.12-8.33,3.78-2.39,8.68-3.59,14.71-3.59,6.7,0,12.68,1.63,17.94,4.88,5.26,3.25,9.42,7.7,12.49,13.35Zm-14.07,19.23c0-6.22-1.91-11.34-5.74-15.36-3.83-4.02-8.66-6.02-14.5-6.02s-10.79,1.98-14.57,5.96c-3.78,3.97-5.67,9.07-5.67,15.29s1.89,11.31,5.67,15.29c3.78,3.97,8.64,5.96,14.57,5.96s10.67-1.96,14.5-5.89c3.83-3.92,5.74-8.99,5.74-15.21Zm223.49-20.38v-15.36h-19.23V0h-16.22l-2.15,19.09h-12.2v15.36h12.2v31c0,9.28,2.25,15.74,6.75,19.38,4.5,3.64,10.48,5.46,17.94,5.46h12.49v-15.64h-8.9c-3.64,0-6.2-.65-7.68-1.94-1.49-1.29-2.22-3.66-2.22-7.1v-31.15h19.23Zm-122.65,.79c3.2,5.6,4.81,12.08,4.81,19.45s-1.6,13.85-4.81,19.45c-3.21,5.6-7.59,9.98-13.13,13.13-5.55,3.16-11.72,4.73-18.52,4.73s-13.09-1.58-18.59-4.73c-5.5-3.16-9.86-7.54-13.06-13.13-3.21-5.6-4.81-12.08-4.81-19.45s1.63-13.85,4.88-19.45c3.25-5.6,7.63-9.98,13.13-13.13,5.5-3.16,11.7-4.74,18.59-4.74s12.94,1.58,18.44,4.74c5.5,3.16,9.86,7.53,13.06,13.13Zm-13.85,19.45c0-7.08-1.77-12.42-5.31-16.01-3.54-3.59-7.66-5.38-12.34-5.38s-9.07,1.8-12.56,5.38c-3.5,3.59-5.24,8.92-5.24,16.01s1.74,12.41,5.24,16c3.49,3.59,7.63,5.38,12.42,5.38s8.95-1.79,12.49-5.38c3.54-3.59,5.31-8.92,5.31-16Zm53.11-22.25l-1.72-13.35h-16.36V90.28h18.37V57.85c0-5.46,.88-9.71,2.66-12.77,1.77-3.06,4.23-5.22,7.39-6.46,3.16-1.24,6.75-1.86,10.77-1.86h5.17V17.37c-6.03,0-11.27,1.36-15.72,4.09-4.45,2.72-7.97,6.38-10.55,10.98ZM203.12,100.24c-10.73-.91-23.07-2.66-31.2-10.03-.07-.06-4.79-4.64-4.25-5.44-2.44,2.97-3.85,8.44-4.27,12.94,0,0,0,.01,0,.01-.16,1.71-.18,3.29-.06,4.54,.21,2.24,.56,4.29,1.09,6.17,.05,.19,.11,.38,.17,.56,2.29,7.59,7.46,12.25,16.77,14.55,7.79,1.93,15.98,1.77,23.93,2.85,.53,.07,1.06,.15,1.59,.24,.44,.07,.88,.14,1.33,.22,.9,.15,1.8,.31,2.71,.49,.68,.13,1.36,.28,2.04,.44,5.19,1.22,10.17,3.26,13.18,7.58,1.01,1.44,1.73,2.94,2.28,4.46,.19,.52,.35,1.03,.51,1.56,1.2,4.04,1.51,8.25,2.99,12.29h0s0,0,0,0c1.64-1.68,3.36-3.64,5.03-5.8,7.02-9.08,13.08-21.66,8.44-31.28-6.55-13.55-28.82-15.21-42.3-16.35Z"/>
      </g>
      <g>
        <path d="M360.87,138.43l8.18-22.2h2.82l8.15,22.2h-2.82l-2.03-5.71h-9.45l-2.06,5.71h-2.79Zm5.65-7.86h7.87l-3.93-10.98-3.93,10.98Z"/>
        <path d="M392.85,138.43v-22.2h2.66l11.83,17.79v-17.79h2.67v22.2h-2.67l-11.83-17.79v17.79h-2.66Z"/>
        <path d="M424.21,138.43v-22.2h6.82c3.91,0,6.79,.99,8.64,2.98,1.85,1.99,2.78,4.72,2.78,8.18s-.93,6.1-2.78,8.07c-1.85,1.98-4.73,2.97-8.64,2.97h-6.82Zm2.66-2.22h4.09c2.16,0,3.87-.35,5.15-1.06,1.28-.71,2.19-1.72,2.74-3.04,.55-1.32,.83-2.89,.83-4.71s-.28-3.46-.83-4.79c-.55-1.33-1.46-2.36-2.74-3.07-1.28-.72-3-1.08-5.15-1.08h-4.09v17.76Z"/>
        <path d="M452.83,138.43l8.18-22.2h2.82l8.15,22.2h-2.82l-2.03-5.71h-9.45l-2.06,5.71h-2.79Zm5.65-7.86h7.87l-3.93-10.98-3.93,10.98Z"/>
        <path d="M484.8,138.43v-22.2h2.66v20.08h10.34v2.13h-13.01Z"/>
        <path d="M518.04,138.81c-1.52,0-2.9-.3-4.14-.9-1.24-.6-2.23-1.54-2.97-2.81-.74-1.27-1.11-2.89-1.11-4.85v-14.02h2.66v14.05c0,2.16,.52,3.72,1.55,4.69,1.04,.97,2.39,1.46,4.06,1.46s3.01-.48,4.03-1.46c1.02-.97,1.52-2.54,1.52-4.69v-14.05h2.66v14.02c0,1.97-.37,3.58-1.11,4.85-.74,1.27-1.73,2.2-2.98,2.81-1.25,.6-2.64,.9-4.19,.9Z"/>
        <path d="M550.07,138.81c-2.18,0-4.05-.48-5.63-1.44-1.58-.96-2.8-2.31-3.66-4.03-.87-1.72-1.3-3.73-1.3-6.01s.43-4.26,1.3-5.98c.87-1.72,2.09-3.07,3.66-4.04,1.58-.97,3.45-1.46,5.63-1.46,2.54,0,4.6,.61,6.2,1.82,1.6,1.22,2.62,2.91,3.06,5.09h-2.95c-.34-1.37-1.03-2.48-2.08-3.32-1.05-.83-2.46-1.25-4.24-1.25-1.59,0-2.97,.36-4.15,1.09s-2.1,1.78-2.74,3.14c-.64,1.37-.97,3-.97,4.9s.32,3.54,.97,4.9c.64,1.36,1.56,2.41,2.74,3.14,1.18,.73,2.57,1.1,4.15,1.1,1.78,0,3.19-.41,4.24-1.22,1.05-.81,1.74-1.9,2.08-3.25h2.95c-.44,2.14-1.46,3.81-3.06,5.01-1.6,1.21-3.66,1.81-6.2,1.81Z"/>
        <path d="M572.59,114.92v-2l6.66-4.03v2.31l-6.66,3.71Zm.1,23.5v-22.2h2.66v22.2h-2.66Z"/>
        <path d="M588.17,138.43l8.18-22.2h2.82l8.15,22.2h-2.82l-2.03-5.71h-9.45l-2.06,5.71h-2.79Zm5.65-7.86h7.87l-3.93-10.98-3.93,10.98Z"/>
      </g>
    </g>
  </g>
</svg>